<?xml version="1.0" encoding="utf-8"?>
<!-- Generator: Adobe Illustrator 16.0.0, SVG Export Plug-In . SVG Version: 6.00 Build 0)  -->
<!DOCTYPE svg PUBLIC "-//W3C//DTD SVG 1.1//EN" "http://www.w3.org/Graphics/SVG/1.1/DTD/svg11.dtd">
<svg version="1.1" id="Layer_1" xmlns="http://www.w3.org/2000/svg" xmlns:xlink="http://www.w3.org/1999/xlink" x="0px" y="0px"
	 width="24px" height="24px" viewBox="0 0 24 24" enable-background="new 0 0 24 24" xml:space="preserve">
<path d="M3,4.275L7.725,9H3v6h4l5,5v-6.725l4.255,4.255c-0.67,0.515-1.425,0.93-2.255,1.18v2.065
	c1.375-0.315,2.63-0.945,3.685-1.811L19.725,21L21,19.725L4.275,3L3,4.275z"/>
<polygon points="12,4 9.91,6.09 12,8.18 "/>
<path d="M16.5,12c0-1.765-1.02-3.29-2.5-4.025v2.21l2.455,2.455C16.485,12.43,16.5,12.215,16.5,12z"/>
<path d="M19,12c0,0.94-0.205,1.825-0.54,2.64l1.515,1.516C20.625,14.91,21,13.5,21,12c0-4.28-2.995-7.86-7-8.77v2.065
	C16.89,6.155,19,8.83,19,12z"/>
</svg>
