<?xml version="1.0" standalone="no"?>
<!DOCTYPE svg PUBLIC "-//W3C//DTD SVG 1.1//EN" "http://www.w3.org/Graphics/SVG/1.1/DTD/svg11.dtd" >
<svg xmlns="http://www.w3.org/2000/svg">
<metadata>Generated by IcoMoon</metadata>
<defs>
<font id="Videobox" horiz-adv-x="1024">
<font-face units-per-em="1024" ascent="960" descent="-64" />
<missing-glyph horiz-adv-x="1024" />
<glyph unicode="&#x20;" horiz-adv-x="512" d="" />
<glyph unicode="&#xe600;" glyph-name="HitkoDev" d="M853.323 198.276c0-124.903-112.124-219.641-322.93-219.641-184.465 0-310.542 92.36-310.542 219.641 0 173.371 87.935 442.369-27.636 642.563 222.878-128.696 196.822-458.489 223.374-561.537 0.692-2.709 1.4-5.283 2.198-7.647 15.413-47.429 59.998-81.763 112.575-81.763 65.357 0 118.34 52.999 118.34 118.34 0 194.399-194.414 471.013-456.503 566.399 373.535 0.030 661.122-302.82 661.122-676.355z" />
<glyph unicode="&#xe601;" glyph-name="play" d="M341.333 725.333v-597.333l469.333 298.667z" />
<glyph unicode="&#xe602;" glyph-name="play-circle" d="M426.667 234.666l256 192-256 192v-384zM512 853.333c-235.733 0-426.667-190.933-426.667-426.667s190.933-426.667 426.667-426.667 426.667 190.933 426.667 426.667-190.933 426.667-426.667 426.667zM512 85.333c-188.16 0-341.333 153.173-341.333 341.333s153.173 341.333 341.333 341.333 341.333-153.173 341.333-341.333-153.173-341.333-341.333-341.333z" />
<glyph unicode="&#xe603;" glyph-name="pause" d="M256 127.999h170.667v597.333h-170.667v-597.333zM597.333 725.333v-597.333h170.667v597.333h-170.667z" />
<glyph unicode="&#xe604;" glyph-name="mute" d="M704 426.666c0 75.307-43.52 140.373-106.667 171.733v-94.293l104.747-104.747c1.28 8.96 1.92 18.133 1.92 27.307zM810.667 426.666c0-40.107-8.747-77.867-23.040-112.64l64.64-64.64c27.733 53.12 43.733 113.28 43.733 177.28 0 182.613-127.787 335.36-298.667 374.187v-88.107c123.307-36.693 213.333-150.827 213.333-286.080zM182.4 810.666l-54.4-54.4 201.6-201.6h-201.6v-256h170.667l213.333-213.333v286.933l181.547-181.547c-28.587-21.973-60.8-39.68-96.213-50.347v-88.107c58.667 13.44 112.213 40.32 157.227 77.227l87.040-86.827 54.4 54.4-713.6 713.6zM512 767.999l-89.173-89.173 89.173-89.173v178.347z" />
<glyph unicode="&#xe605;" glyph-name="volume-1" d="M128.003 554.666v-256h170.667l213.333-213.333v682.667l-213.333-213.333h-170.667z" />
<glyph unicode="&#xe606;" glyph-name="volume-2" d="M704.001 426.666c0 75.307-43.52 140.373-106.667 171.733v-343.68c63.147 31.573 106.667 96.64 106.667 171.947zM128.001 554.666v-256h170.667l213.333-213.333v682.667l-213.333-213.333h-170.667z" />
<glyph unicode="&#xe607;" glyph-name="volume-4" d="M128 554.666v-256h170.667l213.333-213.333v682.667l-213.333-213.333h-170.667zM704 426.666c0 75.307-43.52 140.373-106.667 171.733v-343.68c63.147 31.573 106.667 96.64 106.667 171.947zM597.333 800.853v-88.107c123.307-36.693 213.333-150.827 213.333-286.080s-90.027-249.387-213.333-286.080v-88.107c170.88 38.827 298.667 191.36 298.667 374.187s-127.787 335.36-298.667 374.187z" />
<glyph unicode="&#xe608;" glyph-name="full-screen" d="M298.667 341.333h-85.333v-213.333h213.333v85.333h-128v128zM213.333 511.999h85.333v128h128v85.333h-213.333v-213.333zM725.333 213.333h-128v-85.333h213.333v213.333h-85.333v-128zM597.333 725.333v-85.333h128v-128h85.333v213.333h-213.333z" />
<glyph unicode="&#xe609;" glyph-name="small-screen" d="M213.333 255.999h128v-128h85.333v213.333h-213.333v-85.333zM341.333 597.333h-128v-85.333h213.333v213.333h-85.333v-128zM597.333 127.999h85.333v128h128v85.333h-213.333v-213.333zM682.667 597.333v128h-85.333v-213.333h213.333v85.333h-128z" />
<glyph unicode="&#xe60a;" glyph-name="square" d="M810.667 725.333v-597.333h-597.333v597.333h597.333zM810.667 810.666h-597.333c-47.147 0-85.333-38.187-85.333-85.333v-597.333c0-47.147 38.187-85.333 85.333-85.333h597.333c47.147 0 85.333 38.187 85.333 85.333v597.333c0 47.147-38.187 85.333-85.333 85.333z" />
<glyph unicode="&#xe60b;" glyph-name="spinner" d="M401.067 490.666l203.307 352.213c-29.653 6.613-60.587 10.453-92.373 10.453-102.4 0-196.053-36.053-269.653-96.213l156.373-270.72 2.347 4.267zM919.040 554.666c-39.253 124.8-134.4 224.427-255.787 270.507l-156.16-270.507h411.947zM930.133 511.999h-319.573l12.373-21.333 203.307-352c69.547 75.947 112.427 176.853 112.427 288 0 29.227-2.987 57.813-8.533 85.333zM364.16 426.666l-166.4 288c-69.547-75.947-112.427-176.853-112.427-288 0-29.227 2.987-57.813 8.533-85.333h319.573l-49.28 85.333zM104.96 298.666c39.253-124.8 134.4-224.427 255.787-270.507l156.16 270.507h-411.947zM585.813 298.666l-166.4-288.213c29.867-6.613 60.8-10.453 92.587-10.453 102.4 0 196.053 36.053 269.653 96.213l-156.373 270.72-39.467-68.267z" />
<glyph unicode="&#xe60c;" glyph-name="subtitles" d="M853.333 767.999h-682.667c-47.147 0-85.333-38.187-85.333-85.333v-512c0-47.147 38.187-85.333 85.333-85.333h682.667c47.147 0 85.333 38.187 85.333 85.333v512c0 47.147-38.187 85.333-85.333 85.333zM170.667 426.666h170.667v-85.333h-170.667v85.333zM597.333 170.666h-426.667v85.333h426.667v-85.333zM853.333 170.666h-170.667v85.333h170.667v-85.333zM853.333 341.333h-426.667v85.333h426.667v-85.333z" />
<glyph unicode="&#xe60d;" glyph-name="captions" d="M810.667 767.999h-597.333c-47.147 0-85.333-38.187-85.333-85.333v-512c0-47.147 38.187-85.333 85.333-85.333h597.333c47.147 0 85.333 38.187 85.333 85.333v512c0 47.147-38.187 85.333-85.333 85.333zM469.333 469.333h-64v21.333h-85.333v-128h85.333v21.333h64v-42.667c0-23.467-18.987-42.667-42.667-42.667h-128c-23.68 0-42.667 19.2-42.667 42.667v170.667c0 23.467 18.987 42.667 42.667 42.667h128c23.68 0 42.667-19.2 42.667-42.667v-42.667zM768 469.333h-64v21.333h-85.333v-128h85.333v21.333h64v-42.667c0-23.467-18.987-42.667-42.667-42.667h-128c-23.68 0-42.667 19.2-42.667 42.667v170.667c0 23.467 18.987 42.667 42.667 42.667h128c23.68 0 42.667-19.2 42.667-42.667v-42.667z" />
<glyph unicode="&#xe60e;" glyph-name="chapters" d="M128 383.999h85.333v85.333h-85.333v-85.333zM128 213.333h85.333v85.333h-85.333v-85.333zM128 554.666h85.333v85.333h-85.333v-85.333zM298.667 383.999h597.333v85.333h-597.333v-85.333zM298.667 213.333h597.333v85.333h-597.333v-85.333zM298.667 639.999v-85.333h597.333v85.333h-597.333z" />
<glyph unicode="&#xe60f;" glyph-name="share" d="M768 252.373c-32.427 0-61.653-12.587-83.84-32.853l-304 177.28c2.347 9.6 3.84 19.627 3.84 29.867s-1.493 20.267-3.84 29.867l300.8 175.573c22.827-21.333 53.333-34.56 87.040-34.56 70.613 0 128 57.387 128 128s-57.387 128-128 128-128-57.387-128-128c0-10.24 1.493-20.267 3.84-29.867l-300.8-175.573c-22.827 21.333-53.333 34.56-87.040 34.56-70.613 0-128-57.387-128-128s57.387-128 128-128c33.707 0 64.213 13.227 87.040 34.56l304-177.28c-2.133-8.96-3.413-18.347-3.413-27.947 0-68.693 55.68-124.373 124.373-124.373s124.373 55.68 124.373 124.373-55.68 124.373-124.373 124.373z" />
<glyph unicode="&#xe610;" glyph-name="settings" d="M829.013 385.066c1.707 13.653 2.987 27.52 2.987 41.6s-1.28 27.947-2.987 41.6l90.24 70.613c8.107 6.4 10.453 17.92 5.12 27.307l-85.333 147.84c-5.333 9.173-16.427 13.013-26.027 9.173l-106.24-42.88c-21.973 16.853-46.080 31.147-72.107 42.027l-16 113.067c-1.92 10.027-10.667 17.92-21.333 17.92h-170.667c-10.667 0-19.413-7.893-21.12-17.92l-16-113.067c-26.027-10.88-50.133-24.96-72.107-42.027l-106.24 42.88c-9.6 3.627-20.693 0-26.027-9.173l-85.333-147.84c-5.333-9.173-2.987-20.693 5.12-27.307l90.027-70.613c-1.707-13.653-2.987-27.52-2.987-41.6s1.28-27.947 2.987-41.6l-90.027-70.613c-8.107-6.4-10.453-17.92-5.12-27.307l85.333-147.84c5.333-9.173 16.427-13.013 26.027-9.173l106.24 42.88c21.973-16.853 46.080-31.147 72.107-42.027l16-113.067c1.707-10.027 10.453-17.92 21.12-17.92h170.667c10.667 0 19.413 7.893 21.12 17.92l16 113.067c26.027 10.88 50.133 24.96 72.107 42.027l106.24-42.88c9.6-3.627 20.693 0 26.027 9.173l85.333 147.84c5.333 9.173 2.987 20.693-5.12 27.307l-90.027 70.613zM512 277.333c-82.56 0-149.333 66.773-149.333 149.333s66.773 149.333 149.333 149.333 149.333-66.773 149.333-149.333-66.773-149.333-149.333-149.333z" />
<glyph unicode="&#xe611;" glyph-name="circle" d="M85.333 426.667c0-235.641 191.025-426.667 426.667-426.667s426.667 191.025 426.667 426.667c0 235.641-191.025 426.667-426.667 426.667s-426.667-191.025-426.667-426.667z" />
<glyph unicode="&#xe612;" glyph-name="radio" d="M512 853.333c-235.733 0-426.667-190.933-426.667-426.667s190.933-426.667 426.667-426.667 426.667 190.933 426.667 426.667-190.933 426.667-426.667 426.667zM512 85.333c-188.587 0-341.333 152.747-341.333 341.333s152.747 341.333 341.333 341.333 341.333-152.747 341.333-341.333-152.747-341.333-341.333-341.333z" />
<glyph unicode="&#xe613;" glyph-name="radio-selected" d="M512 639.999c-117.76 0-213.333-95.573-213.333-213.333s95.573-213.333 213.333-213.333 213.333 95.573 213.333 213.333-95.573 213.333-213.333 213.333zM512 853.333c-235.733 0-426.667-190.933-426.667-426.667s190.933-426.667 426.667-426.667 426.667 190.933 426.667 426.667-190.933 426.667-426.667 426.667zM512 85.333c-188.587 0-341.333 152.747-341.333 341.333s152.747 341.333 341.333 341.333 341.333-152.747 341.333-341.333-152.747-341.333-341.333-341.333z" />
<glyph unicode="&#xe614;" glyph-name="close" d="M810.667 664.959l-60.373 60.373-238.293-238.293-238.293 238.293-60.373-60.373 238.293-238.293-238.293-238.293 60.373-60.373 238.293 238.293 238.293-238.293 60.373 60.373-238.293 238.293z" />
<glyph unicode="&#xe615;" glyph-name="circle-close" d="M512 853.333c-235.733 0-426.667-190.933-426.667-426.667s190.933-426.667 426.667-426.667 426.667 190.933 426.667 426.667-190.933 426.667-426.667 426.667zM725.333 273.706l-60.373-60.373-152.96 152.96-152.96-152.96-60.373 60.373 152.96 152.96-152.96 152.96 60.373 60.373 152.96-152.96 152.96 152.96 60.373-60.373-152.96-152.96 152.96-152.96z" />
<glyph unicode="&#xe616;" glyph-name="circle-close-invert" d="M572.323 426.659l153.023-152.993-60.345-60.345-152.993 153.023-152.887-153.023-60.45 60.345 153.008 152.993-153.008 152.887 60.45 60.45 152.887-153.008 152.993 153.008 60.345-60.45z" />
<glyph unicode="&#xe617;" glyph-name="prev" d="M658 622.667l-196-196 196-196-60-60-256 256 256 256z" />
<glyph unicode="&#xe618;" glyph-name="next" d="M426 682.667l256-256-256-256-60 60 196 196-196 196z" />
</font>
</defs>
</svg>
